<svg width="16" height="17" viewBox="0 0 16 17" fill="none" xmlns="http://www.w3.org/2000/svg">
<g clip-path="url(#clip0_17_1882)">
<path d="M16 8.98408C16 4.53808 12.418 0.934082 8.00005 0.934082C3.58005 0.935082 -0.00195312 4.53808 -0.00195312 8.98508C-0.00195312 13.0021 2.92405 16.3321 6.74805 16.9361V11.3111H4.71805V8.98508H6.75005V7.21008C6.75005 5.19308 7.94505 4.07908 9.77205 4.07908C10.648 4.07908 11.563 4.23608 11.563 4.23608V6.21608H10.554C9.56105 6.21608 9.25105 6.83708 9.25105 7.47408V8.98408H11.469L11.115 11.3101H9.25005V16.9351C13.074 16.3311 16 13.0011 16 8.98408Z" fill="#059BE5"/>
</g>
<defs>
<clipPath id="clip0_17_1882">
<rect x="0.00195312" y="0.935059" width="16" height="16" rx="8" fill="white"/>
</clipPath>
</defs>
</svg>
