<svg width="19" height="18" viewBox="0 0 19 18" fill="none" xmlns="http://www.w3.org/2000/svg">
<circle cx="9.4987" cy="8.99479" r="8.66667" fill="#FFD64E"/>
<path d="M9.49617 7.76586L10.7231 5.59241C10.7251 5.58886 10.7278 5.5859 10.7312 5.58382C10.7345 5.58174 10.7383 5.58059 10.7421 5.5805C10.746 5.5804 10.7498 5.58135 10.7532 5.58327C10.7566 5.58519 10.7595 5.588 10.7617 5.59145C11.202 6.29275 11.4225 6.6445 11.4231 6.6467C11.4551 6.73798 11.5301 6.80241 11.5762 6.89651C11.6151 6.97618 11.6594 7.05099 11.7091 7.12093C11.7573 7.1893 11.8049 7.26065 11.8516 7.33498C12.7292 8.731 13.6154 10.1466 14.5102 11.5818C14.5476 11.6421 14.5855 11.6998 14.6238 11.755C14.6597 11.8073 14.7047 11.8467 14.7588 11.873C15.0107 11.9968 15.2532 12.1489 15.4861 12.3291C15.4882 12.3307 15.4886 12.3326 15.4875 12.3348L15.4818 12.3451C15.48 12.3486 15.4775 12.3494 15.4743 12.3475C15.2712 12.2268 15.0608 12.1187 14.843 12.0231C14.1061 11.7002 13.3526 11.4525 12.5755 11.2859C11.3847 11.0308 10.1685 10.9283 8.92675 10.9785C8.2603 11.0056 7.67655 11.06 7.17551 11.1418C7.10919 11.1525 7.03936 11.1645 6.96603 11.1777C6.38523 11.2809 5.82315 11.4189 5.27978 11.5917C4.66777 11.7866 4.0736 12.038 3.49729 12.3461C3.49379 12.348 3.49101 12.3472 3.48896 12.3438L3.48896 12.3433C3.48692 12.3395 3.48765 12.3364 3.49115 12.3339C3.73561 12.1508 3.99425 11.9897 4.26708 11.8506C4.29892 11.8343 4.32476 11.8103 4.34461 11.7786C5.66068 9.67521 6.94975 7.61217 8.2118 5.58946C8.21369 5.58635 8.21629 5.58382 8.21936 5.58209C8.22243 5.58037 8.22587 5.57952 8.22937 5.57961C8.23286 5.5797 8.23629 5.58074 8.23935 5.58262C8.24241 5.5845 8.24499 5.58717 8.24686 5.59038L9.4782 7.76587C9.48405 7.77653 9.49004 7.77653 9.49617 7.76586ZM10.8666 10.2316C10.883 10.2683 10.878 10.2719 10.8517 10.2425L9.50544 8.74802C9.50302 8.74526 9.50009 8.74305 9.49685 8.74155C9.49361 8.74005 9.49012 8.73927 9.48658 8.73927C9.48305 8.73928 9.47956 8.74005 9.47632 8.74156C9.47308 8.74307 9.47016 8.74527 9.46774 8.74804L8.16288 10.2029C8.08375 10.2911 8.07381 10.2829 8.13307 10.1784L9.14149 8.39854C9.14714 8.38857 9.14955 8.37685 9.14835 8.3652C9.14716 8.35355 9.14243 8.34261 9.13489 8.33407L8.26267 7.36176C8.26047 7.35927 8.25782 7.35728 8.2549 7.35592C8.25197 7.35456 8.24882 7.35386 8.24565 7.35386C8.24249 7.35386 8.23936 7.35457 8.23649 7.35593C8.23361 7.35729 8.23103 7.35928 8.22892 7.36178L4.48087 11.6882C4.44495 11.7296 4.45124 11.7393 4.49973 11.7173C4.71794 11.619 4.94856 11.5154 5.1916 11.4064C5.42441 11.3021 5.79279 11.1805 6.29673 11.0415C6.59792 10.9589 6.88583 10.8917 7.16045 10.8401C8.70126 10.5504 10.2437 10.5476 11.7877 10.8317C12.0735 10.8842 12.3617 10.9503 12.6525 11.0298C13.1364 11.162 13.4944 11.2782 13.7264 11.3785C13.9883 11.4913 14.2412 11.6032 14.4852 11.7141C14.5285 11.7338 14.534 11.7252 14.5019 11.6882L10.752 7.36849C10.7489 7.36491 10.7451 7.36205 10.7409 7.36008C10.7367 7.35811 10.7322 7.35708 10.7277 7.35704C10.7231 7.357 10.7186 7.35795 10.7144 7.35984C10.7103 7.36173 10.7065 7.36452 10.7034 7.36804C10.4464 7.65995 10.1881 7.94794 9.92854 8.23201C9.8935 8.27062 9.86357 8.3086 9.83875 8.34595C9.83355 8.35382 9.83057 8.36313 9.83019 8.37274C9.8298 8.38234 9.83203 8.39184 9.83659 8.40007C10.1501 8.96119 10.4555 9.49894 10.753 10.0133C10.7986 10.0917 10.8365 10.1645 10.8666 10.2316Z" fill="black"/>
<g filter="url(#filter0_d_2370_4441)">
<path d="M17.1797 8.99612C17.1797 13.2375 13.7414 16.6758 9.50003 16.6758C5.25864 16.6758 1.82031 13.2375 1.82031 8.99612C1.82031 4.75473 5.25864 1.31641 9.50003 1.31641C13.7414 1.31641 17.1797 4.75473 17.1797 8.99612ZM3.03247 8.99612C3.03247 12.5681 5.92809 15.4637 9.50003 15.4637C13.072 15.4637 15.9676 12.5681 15.9676 8.99612C15.9676 5.42419 13.072 2.52856 9.50003 2.52856C5.92809 2.52856 3.03247 5.42419 3.03247 8.99612Z" fill="#CFA000"/>
</g>
<defs>
<filter id="filter0_d_2370_4441" x="1.64949" y="1.14559" width="15.7011" height="15.7011" filterUnits="userSpaceOnUse" color-interpolation-filters="sRGB">
<feFlood flood-opacity="0" result="BackgroundImageFix"/>
<feColorMatrix in="SourceAlpha" type="matrix" values="0 0 0 0 0 0 0 0 0 0 0 0 0 0 0 0 0 0 127 0" result="hardAlpha"/>
<feOffset/>
<feGaussianBlur stdDeviation="0.0854093"/>
<feComposite in2="hardAlpha" operator="out"/>
<feColorMatrix type="matrix" values="0 0 0 0 0 0 0 0 0 0 0 0 0 0 0 0 0 0 0.25 0"/>
<feBlend mode="normal" in2="BackgroundImageFix" result="effect1_dropShadow_2370_4441"/>
<feBlend mode="normal" in="SourceGraphic" in2="effect1_dropShadow_2370_4441" result="shape"/>
</filter>
</defs>
</svg>
