<svg width="17" height="17" viewBox="0 0 17 17" fill="none" xmlns="http://www.w3.org/2000/svg">
<g clip-path="url(#clip0_17_1871)">
<path d="M16.1781 7.36717H15.5337V7.33397H8.33385V10.5339H12.855C12.1954 12.3967 10.423 13.7339 8.33385 13.7339C5.68309 13.7339 3.53393 11.5847 3.53393 8.93394C3.53393 6.28319 5.68309 4.13403 8.33385 4.13403C9.55743 4.13403 10.6706 4.59562 11.5182 5.34961L13.781 3.08684C12.3522 1.75527 10.441 0.934082 8.33385 0.934082C3.91592 0.934082 0.333984 4.51602 0.333984 8.93394C0.333984 13.3519 3.91592 16.9338 8.33385 16.9338C12.7518 16.9338 16.3337 13.3519 16.3337 8.93394C16.3337 8.39755 16.2785 7.87396 16.1781 7.36717Z" fill="#FFC107"/>
<path d="M1.25586 5.21041L3.88421 7.13797C4.5954 5.3772 6.31777 4.13403 8.33334 4.13403C9.55692 4.13403 10.6701 4.59562 11.5177 5.34961L13.7804 3.08684C12.3517 1.75527 10.4405 0.934082 8.33334 0.934082C5.26059 0.934082 2.59584 2.66885 1.25586 5.21041Z" fill="#FF3D00"/>
<path d="M8.33281 16.9335C10.3992 16.9335 12.2767 16.1427 13.6963 14.8567L11.2204 12.7615C10.3902 13.3929 9.37578 13.7343 8.33281 13.7335C6.25205 13.7335 4.48528 12.4067 3.81969 10.5552L1.21094 12.5651C2.53491 15.1559 5.22367 16.9335 8.33281 16.9335Z" fill="#4CAF50"/>
<path d="M16.1783 7.3667H15.5339V7.3335H8.33398V10.5334H12.8551C12.5396 11.42 11.9713 12.1947 11.2203 12.7618L11.2215 12.761L13.6975 14.8562C13.5223 15.0154 16.3338 12.9334 16.3338 8.93347C16.3338 8.39708 16.2786 7.87349 16.1783 7.3667Z" fill="#1976D2"/>
</g>
<defs>
<clipPath id="clip0_17_1871">
<rect x="0.335938" y="0.935059" width="16" height="16" rx="8" fill="white"/>
</clipPath>
</defs>
</svg>
