<svg width="22" height="22" viewBox="0 0 22 22" fill="none" xmlns="http://www.w3.org/2000/svg">
<path d="M10.9687 9.26844L12.6975 6.20603C12.7003 6.20103 12.7042 6.19686 12.7089 6.19393C12.7136 6.19099 12.7189 6.18938 12.7243 6.18924C12.7297 6.18911 12.7351 6.19045 12.7399 6.19315C12.7447 6.19585 12.7488 6.19982 12.7518 6.20468C13.3723 7.19282 13.683 7.68844 13.6838 7.69153C13.729 7.82015 13.8346 7.91094 13.8995 8.04353C13.9543 8.15578 14.0167 8.26118 14.0868 8.35973C14.1548 8.45606 14.2217 8.5566 14.2876 8.66134C15.5241 10.6283 16.7727 12.623 18.0335 14.6452C18.0863 14.7301 18.1396 14.8114 18.1936 14.8891C18.2443 14.9629 18.3077 15.0184 18.3839 15.0555C18.7388 15.2299 19.0804 15.4441 19.4087 15.6982C19.4116 15.7004 19.4122 15.703 19.4105 15.7061L19.4025 15.7207C19.4 15.7256 19.3965 15.7267 19.392 15.724C19.1058 15.554 18.8093 15.4016 18.5025 15.267C17.4642 14.8119 16.4025 14.463 15.3075 14.2282C13.6297 13.8688 11.916 13.7244 10.1664 13.7952C9.22738 13.8332 8.40488 13.9099 7.6989 14.0252C7.60545 14.0403 7.50707 14.0571 7.40374 14.0757C6.58539 14.2212 5.79341 14.4156 5.0278 14.6592C4.16546 14.9337 3.32828 15.288 2.51625 15.7221C2.51131 15.7247 2.5074 15.7236 2.50451 15.7188L2.50451 15.7181C2.50163 15.7128 2.50266 15.7084 2.50759 15.7048C2.85204 15.4469 3.21647 15.22 3.60088 15.0239C3.64575 15.0009 3.68216 14.9671 3.71013 14.9224C5.56449 11.9587 7.3808 9.0519 9.15905 6.20187C9.16171 6.19749 9.16538 6.19392 9.1697 6.1915C9.17403 6.18907 9.17887 6.18787 9.1838 6.188C9.18872 6.18813 9.19355 6.18958 9.19786 6.19224C9.20217 6.19489 9.20581 6.19865 9.20845 6.20318L10.9434 9.26846C10.9517 9.28348 10.9601 9.28348 10.9687 9.26844ZM12.8997 12.7428C12.9227 12.7945 12.9157 12.7995 12.8787 12.758L10.9818 10.6523C10.9784 10.6484 10.9743 10.6453 10.9697 10.6432C10.9651 10.6411 10.9602 10.64 10.9552 10.64C10.9503 10.64 10.9453 10.6411 10.9408 10.6432C10.9362 10.6453 10.9321 10.6485 10.9287 10.6523L9.09012 12.7023C8.97862 12.8265 8.96462 12.8151 9.04811 12.6678L10.469 10.1599C10.4769 10.1458 10.4803 10.1293 10.4787 10.1129C10.477 10.0965 10.4703 10.0811 10.4597 10.0691L9.23072 8.69907C9.22762 8.69555 9.2239 8.69275 9.21977 8.69083C9.21564 8.68892 9.21121 8.68793 9.20675 8.68793C9.20228 8.68794 9.19788 8.68893 9.19383 8.69085C9.18977 8.69277 9.18615 8.69557 9.18317 8.69909L3.90212 14.795C3.85151 14.8534 3.86037 14.8671 3.9287 14.8361C4.23615 14.6976 4.5611 14.5515 4.90354 14.398C5.23158 14.251 5.75063 14.0797 6.46068 13.8839C6.88507 13.7674 7.29074 13.6729 7.67768 13.6002C9.8487 13.1919 12.022 13.1879 14.1975 13.5882C14.6002 13.6623 15.0064 13.7553 15.416 13.8674C16.0979 14.0536 16.6023 14.2174 16.9292 14.3586C17.2982 14.5176 17.6546 14.6752 17.9984 14.8316C18.0594 14.8594 18.0672 14.8472 18.0219 14.7951L12.7383 8.70854C12.7338 8.70351 12.7285 8.69948 12.7226 8.6967C12.7167 8.69393 12.7104 8.69247 12.7039 8.69241C12.6975 8.69235 12.6912 8.6937 12.6853 8.69636C12.6794 8.69903 12.6741 8.70296 12.6697 8.70792C12.3077 9.11922 11.9437 9.525 11.578 9.92526C11.5286 9.97966 11.4864 10.0332 11.4514 10.0858C11.4441 10.0969 11.4399 10.11 11.4394 10.1235C11.4388 10.1371 11.442 10.1505 11.4484 10.1621C11.8901 10.9527 12.3205 11.7104 12.7396 12.4352C12.8038 12.5456 12.8572 12.6482 12.8997 12.7428Z" fill="#818181"/>
<g filter="url(#filter0_d_2131_1233)">
<path d="M21 11C21 16.5228 16.5228 21 11 21C5.47715 21 1 16.5228 1 11C1 5.47715 5.47715 1 11 1C16.5228 1 21 5.47715 21 11ZM2.00128 11C2.00128 15.9699 6.03014 19.9987 11 19.9987C15.9699 19.9987 19.9987 15.9699 19.9987 11C19.9987 6.03014 15.9699 2.00128 11 2.00128C6.03014 2.00128 2.00128 6.03014 2.00128 11Z" fill="#818181"/>
</g>
<defs>
<filter id="filter0_d_2131_1233" x="0.743772" y="0.743772" width="20.5125" height="20.5125" filterUnits="userSpaceOnUse" color-interpolation-filters="sRGB">
<feFlood flood-opacity="0" result="BackgroundImageFix"/>
<feColorMatrix in="SourceAlpha" type="matrix" values="0 0 0 0 0 0 0 0 0 0 0 0 0 0 0 0 0 0 127 0" result="hardAlpha"/>
<feOffset/>
<feGaussianBlur stdDeviation="0.128114"/>
<feComposite in2="hardAlpha" operator="out"/>
<feColorMatrix type="matrix" values="0 0 0 0 0 0 0 0 0 0 0 0 0 0 0 0 0 0 0.25 0"/>
<feBlend mode="normal" in2="BackgroundImageFix" result="effect1_dropShadow_2131_1233"/>
<feBlend mode="normal" in="SourceGraphic" in2="effect1_dropShadow_2131_1233" result="shape"/>
</filter>
</defs>
</svg>
